<?xml version="1.0" encoding="UTF-8" standalone="no"?>
<!DOCTYPE svg PUBLIC "-//W3C//DTD SVG 1.1//EN"
 "http://www.w3.org/Graphics/SVG/1.1/DTD/svg11.dtd">
<!-- Generated by graphviz version 5.0.0 (20220707.1540)
 -->
<!-- Title: StorageDiagram Pages: 1 -->
<svg width="536pt" height="183pt"
 viewBox="0.00 0.00 535.68 182.60" xmlns="http://www.w3.org/2000/svg" xmlns:xlink="http://www.w3.org/1999/xlink">
<g id="graph0" class="graph" transform="scale(1 1) rotate(0) translate(4 178.6)">
<title>StorageDiagram</title>
<polygon fill="white" stroke="transparent" points="-4,4 -4,-178.6 531.68,-178.6 531.68,4 -4,4"/>
<!-- 1 -->
<g id="node1" class="node">
<title>1</title>
<polygon fill="#f2f2f2" stroke="black" points="0,-0.5 0,-174.1 527.68,-174.1 527.68,-0.5 0,-0.5"/>
<text text-anchor="middle" x="263.84" y="-157.5" font-family="Courier New" font-size="14.00">Vault &lt;&lt;Contract&gt;&gt;</text>
<polyline fill="none" stroke="black" points="0,-149.3 527.68,-149.3 "/>
<text text-anchor="middle" x="24.8" y="-132.7" font-family="Courier New" font-size="14.00">slot</text>
<polyline fill="none" stroke="black" points="0,-124.5 49.61,-124.5 "/>
<text text-anchor="middle" x="24.8" y="-107.9" font-family="Courier New" font-size="14.00">0</text>
<polyline fill="none" stroke="black" points="0,-99.7 49.61,-99.7 "/>
<text text-anchor="middle" x="24.8" y="-83.1" font-family="Courier New" font-size="14.00">1</text>
<polyline fill="none" stroke="black" points="0,-74.9 49.61,-74.9 "/>
<text text-anchor="middle" x="24.8" y="-58.3" font-family="Courier New" font-size="14.00">2</text>
<polyline fill="none" stroke="black" points="0,-50.1 49.61,-50.1 "/>
<text text-anchor="middle" x="24.8" y="-33.5" font-family="Courier New" font-size="14.00">3</text>
<polyline fill="none" stroke="black" points="0,-25.3 49.61,-25.3 "/>
<text text-anchor="middle" x="24.8" y="-8.7" font-family="Courier New" font-size="14.00">4</text>
<polyline fill="none" stroke="black" points="49.61,-0.5 49.61,-149.3 "/>
<text text-anchor="middle" x="288.64" y="-132.7" font-family="Courier New" font-size="14.00">type: &lt;inherited contract&gt;.variable (bytes)</text>
<polyline fill="none" stroke="black" points="49.61,-124.5 527.68,-124.5 "/>
<text text-anchor="middle" x="162.82" y="-107.9" font-family="Courier New" font-size="14.00">unallocated (12)</text>
<polyline fill="none" stroke="black" points="276.03,-99.7 276.03,-124.5 "/>
<text text-anchor="middle" x="401.84" y="-107.9" font-family="Courier New" font-size="14.00">address: owner (20)</text>
<polyline fill="none" stroke="black" points="49.61,-99.7 527.68,-99.7 "/>
<text text-anchor="middle" x="147.82" y="-83.1" font-family="Courier New" font-size="14.00">unallocated (12)</text>
<polyline fill="none" stroke="black" points="246.03,-74.9 246.03,-99.7 "/>
<text text-anchor="middle" x="386.75" y="-83.1" font-family="Courier New" font-size="14.00">address: pendingOwner (20)</text>
<polyline fill="none" stroke="black" points="49.61,-74.9 527.68,-74.9 "/>
<text text-anchor="middle" x="143.82" y="-58.3" font-family="Courier New" font-size="14.00">unallocated (12)</text>
<polyline fill="none" stroke="black" points="238.03,-50.1 238.03,-74.9 "/>
<text text-anchor="middle" x="382.65" y="-58.3" font-family="Courier New" font-size="14.00">GuardRegistry: registry (20)</text>
<polyline fill="none" stroke="black" points="49.61,-50.1 527.68,-50.1 "/>
<text text-anchor="middle" x="166.82" y="-33.5" font-family="Courier New" font-size="14.00">unallocated (12)</text>
<polyline fill="none" stroke="black" points="284.03,-25.3 284.03,-50.1 "/>
<text text-anchor="middle" x="405.44" y="-33.5" font-family="Courier New" font-size="14.00">Guard: guard (20)</text>
<polyline fill="none" stroke="black" points="49.61,-25.3 527.68,-25.3 "/>
<text text-anchor="middle" x="288.64" y="-8.7" font-family="Courier New" font-size="14.00">mapping(address=&gt;mapping(address=&gt;uint)): balances (32)</text>
</g>
</g>
</svg>
